<svg width="28" height="28" viewBox="0 0 28 28" fill="none" xmlns="http://www.w3.org/2000/svg">
<path d="M11.2358 15.0084C11.7757 15.7308 12.4644 16.3286 13.2554 16.7612C14.0464 17.1938 14.921 17.451 15.82 17.5154C16.719 17.5799 17.6213 17.45 18.4658 17.1347C19.3103 16.8194 20.0771 16.326 20.7143 15.6879L24.4856 11.9128C25.6305 10.7261 26.2641 9.13682 26.2498 7.48713C26.2354 5.83744 25.5744 4.25938 24.409 3.09283C23.2436 1.92628 21.6672 1.26457 20.0191 1.25024C18.3711 1.2359 16.7834 1.87008 15.5979 3.01618L13.4357 5.16798M16.2642 12.4916C15.7243 11.7692 15.0356 11.1714 14.2446 10.7388C13.4536 10.3062 12.579 10.049 11.68 9.98457C10.781 9.92012 9.87867 10.05 9.0342 10.3653C8.18974 10.6806 7.4229 11.174 6.78569 11.8121L3.01441 15.5872C1.86946 16.7739 1.23592 18.3632 1.25024 20.0129C1.26456 21.6626 1.9256 23.2406 3.09097 24.4072C4.25635 25.5737 5.83283 26.2354 7.48086 26.2498C9.12889 26.2641 10.7166 25.6299 11.9021 24.4838L14.0517 22.332" stroke="white" stroke-width="2.5" stroke-linecap="round" stroke-linejoin="round"/>
</svg>
