<svg width="36" height="32" viewBox="0 0 36 32" fill="none" xmlns="http://www.w3.org/2000/svg">
<rect width="36" height="32" rx="8" fill="#01284B"/>
<path d="M19.5971 11.1566C19.5971 11.7143 19.6464 12.2772 19.5871 12.8296C19.4622 13.9886 18.8851 14.9402 17.921 15.6638C16.6718 16.6018 15.9613 17.8129 15.7602 19.2995C15.5891 20.5596 16.221 21.7481 17.3931 22.3737C19.473 23.4829 22.1009 22.1284 22.2311 19.8782C22.2442 19.6504 22.2311 19.4217 22.2442 19.1938C22.2527 19.0482 22.2103 18.9773 22.0492 18.9259C20.9511 18.5743 20.2267 17.5699 20.2853 16.5052C20.3469 15.3869 21.1607 14.4625 22.3051 14.2082C23.6452 13.9109 25.0138 14.6678 25.396 15.9174C25.7806 17.1753 25.0678 18.4943 23.7616 18.9192C23.5943 18.9735 23.5373 19.0406 23.5442 19.2082C23.5789 20.0088 23.481 20.7868 23.1119 21.524C22.2588 23.2264 20.2976 24.2307 18.3441 23.9546C16.3497 23.6723 14.7722 22.2198 14.4802 20.374C14.4023 19.8828 14.4108 19.3772 14.3129 18.8905C14.0517 17.5941 13.379 16.5218 12.2731 15.6948C11.1141 14.8277 10.5323 13.683 10.5084 12.2916C10.4945 11.4932 10.5007 10.6941 10.5068 9.89572C10.5161 8.79778 11.363 8.00772 12.5297 8.00168C12.7208 8.00093 12.912 7.99791 13.1023 8.00244C13.4814 8.0115 13.7643 8.27258 13.7681 8.61291C13.772 8.95851 13.4845 9.22337 13.0946 9.22941C12.8973 9.23243 12.7 9.22715 12.5028 9.23092C12.0959 9.23847 11.8169 9.47692 11.8146 9.85572C11.81 10.768 11.7861 11.6826 11.8385 12.5934C11.9202 13.9984 13.1624 15.193 14.6435 15.3552C16.3921 15.5469 17.9156 14.5161 18.2678 12.8967C18.3094 12.7043 18.3264 12.5036 18.3279 12.3066C18.3348 11.5083 18.3317 10.7092 18.3302 9.91081C18.3294 9.47918 18.0659 9.23469 17.6043 9.23092C17.407 9.22941 17.2097 9.23469 17.0124 9.22866C16.668 9.21809 16.4021 8.97888 16.3805 8.66799C16.3574 8.33522 16.594 8.0281 16.9462 8.01527C17.35 8.00093 17.7669 7.99565 18.1591 8.07413C19.0215 8.24693 19.6125 8.97134 19.6295 9.80517C19.6387 10.2557 19.631 10.7062 19.631 11.1566C19.6187 11.1566 19.6079 11.1566 19.5971 11.1566ZM22.89 17.7473C23.5797 17.745 24.143 17.1911 24.1407 16.518C24.1384 15.8434 23.5743 15.2926 22.8854 15.2918C22.1872 15.2911 21.6169 15.8532 21.6269 16.5316C21.6369 17.2108 22.1964 17.7495 22.89 17.7473Z" fill="#2D99FC" stroke="#2D99FC" stroke-miterlimit="10"/>
</svg>
